<svg width="41" height="41" viewBox="0 0 41 41" fill="none" xmlns="http://www.w3.org/2000/svg">
<path fill-rule="evenodd" clip-rule="evenodd" d="M40.1361 3.86233C40.9538 2.9792 40.9538 1.54548 40.1361 0.662347C39.0458 -0.220782 37.6829 -0.220782 36.8652 0.662347L20.2384 17.1611L3.88413 0.662347C2.79385 -0.220782 1.431 -0.220782 0.613284 0.662347C-0.204428 1.54548 -0.204428 2.9792 0.613284 3.86233L17.2401 20.361L0.613284 36.8625C-0.204428 37.7456 -0.204428 39.1766 0.613284 40.0597C1.431 40.9456 2.79385 40.9456 3.88413 40.0597L20.2384 23.561L36.8652 40.0597C37.6829 40.9456 39.0458 40.9456 40.1361 40.0597C40.9538 39.1766 40.9538 37.7456 40.1361 36.8625L23.5092 20.361L40.1361 3.86233Z" fill="white"/>
</svg>
